<?xml version="1.0" encoding="UTF-8" standalone="no"?>
<svg
   width="32"
   height="32"
   viewBox="0 0 32 32"
   fill="none"
   version="1.1"
   id="svg1"
   sodipodi:docname="Globe.svg"
   inkscape:version="1.3.2 (091e20e, 2023-11-25, custom)"
   xmlns:inkscape="http://www.inkscape.org/namespaces/inkscape"
   xmlns:sodipodi="http://sodipodi.sourceforge.net/DTD/sodipodi-0.dtd"
   xmlns="http://www.w3.org/2000/svg"
   xmlns:svg="http://www.w3.org/2000/svg">
  <defs
     id="defs1" />
  <sodipodi:namedview
     id="namedview1"
     pagecolor="#ffffff"
     bordercolor="#000000"
     borderopacity="0.25"
     inkscape:showpageshadow="2"
     inkscape:pageopacity="0.0"
     inkscape:pagecheckerboard="0"
     inkscape:deskcolor="#d1d1d1"
     inkscape:zoom="15.34375"
     inkscape:cx="16"
     inkscape:cy="15.967413"
     inkscape:window-width="1280"
     inkscape:window-height="730"
     inkscape:window-x="-6"
     inkscape:window-y="-6"
     inkscape:window-maximized="1"
     inkscape:current-layer="svg1" />
  <path
     d="m 29.3333,16 c 0,7.3638 -5.9695,13.3334 -13.3333,13.3334 M 29.3333,16 C 29.3333,8.63622 23.3638,2.66669 16,2.66669 M 29.3333,16 H 2.66663 M 16,29.3334 C 8.63616,29.3334 2.66663,23.3638 2.66663,16 M 16,29.3334 C 19.335,25.6822 21.2303,20.944 21.3333,16 21.2303,11.0561 19.335,6.31782 16,2.66669 M 16,29.3334 C 12.6649,25.6822 10.7696,20.944 10.6666,16 10.7696,11.0561 12.6649,6.31782 16,2.66669 M 2.66663,16 C 2.66663,8.63622 8.63616,2.66669 16,2.66669"
     stroke="white"
     stroke-width="3"
     stroke-linecap="round"
     stroke-linejoin="round"
     id="path1"
     style="fill:none;stroke:#888a85" />
</svg>
